<svg xmlns="http://www.w3.org/2000/svg" width="24" height="20" viewBox="0 0 24 20">
    <path fill="#0e215d" fill-rule="evenodd" d="M.93 20h4.552V6.505H.929V20zM3.235 0C1.678 0 .659 1.007.659 2.331c0 1.295.99 2.333 2.517 2.333h.03c1.588 0 2.576-1.037 2.576-2.333C5.752 1.007 4.794 0 3.236 0zm18.663 12.262V20h-4.552v-7.22c0-1.813-.659-3.051-2.306-3.051-1.258 0-2.007.834-2.336 1.64-.12.29-.151.69-.151 1.095V20H8S8.06 7.772 8 6.505h4.553v1.913l-.03.044h.03v-.044c.605-.918 1.686-2.23 4.104-2.23 2.996 0 5.242 1.929 5.242 6.074z"/>
</svg>