<svg xmlns="http://www.w3.org/2000/svg" width="23" height="15" viewBox="0 0 23 15">
    <path fill="#0e215d" fill-rule="evenodd" d="M.232 13.818l7.203-6.825L.211.903l-.064.399v12.096c0 .084.028.224.085.42zm8.12-7.644l.959.756 1.896 1.533 1.897-1.533.96-.756L21.308.063C21.181.021 21.053 0 20.925 0H1.468c-.142 0-.263.021-.362.063l7.246 6.111zM1.468 14.7h19.457c.128 0 .25-.021.363-.063L14.02 7.77l-2.814 2.247L8.394 7.77l-7.267 6.867c.114.042.228.063.341.063zm20.715-.882c.042-.154.064-.294.064-.42V1.302c0-.14-.022-.273-.064-.399l-7.203 6.09 7.203 6.825z"/>
</svg>