<svg xmlns="http://www.w3.org/2000/svg" width="24" height="18" viewBox="0 0 24 18">
    <path fill="#0e215d" fill-rule="evenodd" d="M19.938 2.823c.989-.588 1.662-1.42 2.02-2.496-.903.539-1.876.908-2.916 1.11C18.121.479 16.996 0 15.665 0c-1.28 0-2.371.445-3.275 1.336-.904.89-1.355 1.966-1.355 3.227 0 .336.033.68.102 1.033-1.893-.1-3.66-.571-5.297-1.412-1.636-.84-3.035-1.958-4.195-3.352-.426.705-.64 1.462-.64 2.269 0 .806.188 1.537.564 2.193.375.655.878 1.194 1.509 1.613-.734-.033-1.424-.226-2.072-.58-.018 1.16.333 2.126 1.048 2.95.717.824 1.604 1.345 2.661 1.563-.392.101-.793.151-1.202.151-.274 0-.563-.025-.87-.076.307.908.853 1.656 1.637 2.245.785.587 1.68.89 2.687.907-1.672 1.294-3.582 1.941-5.731 1.941-.41 0-.785-.017-1.125-.05 2.148 1.36 4.51 2.041 7.086 2.041 1.637.018 3.173-.234 4.604-.755 1.433-.522 2.661-1.202 3.685-2.042 1.023-.84 1.901-1.824 2.635-2.95.733-1.127 1.279-2.294 1.637-3.504.359-1.21.538-2.43.538-3.656 0-.253-.009-.446-.026-.58.904-.638 1.671-1.42 2.303-2.345 0 0-1.75.555-2.635.656z"/>
</svg>