<svg xmlns="http://www.w3.org/2000/svg" width="23" height="20" viewBox="0 0 23 20">
    <g fill="#4A90E2" fill-rule="evenodd">
        <path d="M0 9.073h22.989V7.49H0zM4.3.103a2.964 2.964 0 0 0-2.972 2.955v3.43h1.38v-3.43h4.565A2.963 2.963 0 0 0 4.3.103M21.767 13.97v-3.932H1.328v3.932c0 1.218.558 2.307 1.434 3.028l-.488.69a.973.973 0 0 0 .24 1.36.985.985 0 0 0 1.368-.239l.69-.975c.23.042.468.067.712.067h12.528c.21 0 .415-.021.617-.052l.679.96a.985.985 0 0 0 1.367.24.974.974 0 0 0 .241-1.361l-.45-.637a3.916 3.916 0 0 0 1.501-3.081"/>
    </g>
</svg>
