<svg xmlns="http://www.w3.org/2000/svg" width="23" height="19" viewBox="0 0 23 19">
    <path fill="#4A90E2" fill-rule="evenodd" d="M0 17.417C0 18.29.644 19 1.438 19c.793 0 1.437-.709 1.437-1.583V14.25h17.25v3.167c0 .874.644 1.583 1.438 1.583.793 0 1.437-.709 1.437-1.583V5.937c0-1.967-1.448-3.562-3.234-3.562h-7.547c-.794 0-1.438.709-1.438 1.583v7.125H2.875v-9.5C2.875.71 2.231 0 1.437 0 .644 0 0 .709 0 1.583v15.834zM6.828 9.5c-1.39 0-2.516-1.24-2.516-2.77 0-1.531 1.127-2.772 2.516-2.772 1.39 0 2.516 1.24 2.516 2.771 0 1.53-1.127 2.771-2.516 2.771z"/>
</svg>
