<svg xmlns="http://www.w3.org/2000/svg" width="23" height="22" viewBox="0 0 23 22">
    <path fill="#4A90E2" fill-rule="evenodd" d="M0 9.429v10.468C0 21.06.959 22 2.148 22h18.704C22.041 22 23 21.06 23 19.897V9.429H0zM2.148 1.57C.958 1.571 0 2.511 0 3.675V8.38h23V3.675c0-1.165-.959-2.104-2.148-2.104H18.194v2.235c.328.288.535.705.535 1.17 0 .868-.718 1.572-1.604 1.572-.886 0-1.605-.704-1.605-1.572 0-.465.207-.882.535-1.17V1.57H6.953v2.227c.334.288.544.709.544 1.178 0 .868-.719 1.572-1.605 1.572s-1.605-.704-1.605-1.572c0-.46.204-.875.527-1.162V1.571H2.148zM17.125 0a.53.53 0 0 0-.535.524v4.452c0 .29.24.524.535.524a.53.53 0 0 0 .534-.524V.524A.53.53 0 0 0 17.125 0zM5.892 0a.53.53 0 0 0-.535.524v4.452c0 .29.24.524.535.524a.53.53 0 0 0 .535-.524V.524A.53.53 0 0 0 5.892 0z"/>
</svg>
