<svg xmlns="http://www.w3.org/2000/svg" width="23" height="14" viewBox="0 0 23 14">
    <path fill="#4A90E2" fill-rule="evenodd" d="M16.808 11.375c0-.481.398-.875.884-.875.487 0 .885.394.885.875a.882.882 0 0 1-.885.875.882.882 0 0 1-.884-.875zm-12.385 0c0-.481.398-.875.885-.875.486 0 .884.394.884.875a.882.882 0 0 1-.884.875.882.882 0 0 1-.885-.875zM11.5 1.75v3.5H6.14c.105-.166.207-.328.304-.49.894-1.479 1.814-3.01 5.056-3.01zm1.77.11c3.224.432 3.847 2.06 4.316 3.298.01.03.022.061.036.092h-4.353V1.86zm5.974 2.686C18.683 3.062 17.67.385 12.627.039A.879.879 0 0 0 12.385 0a.73.73 0 0 0-.168.018C11.987.008 11.747 0 11.5 0 7.254 0 5.852 2.323 4.923 3.863 4.317 4.87 4.038 5.25 3.538 5.25 1.588 5.25 0 6.82 0 8.75c0 1.671 1.19 3.071 2.778 3.417A2.652 2.652 0 0 0 5.308 14c1.154 0 2.132-.73 2.499-1.75h7.386a2.652 2.652 0 0 0 2.5 1.75c1.185 0 2.189-.77 2.53-1.833C21.81 11.82 23 10.42 23 8.75c0-1.903-1.544-3.456-3.454-3.5-.089-.136-.213-.46-.302-.704z"/>
</svg>
