<svg xmlns="http://www.w3.org/2000/svg" width="24" height="17" viewBox="0 0 24 17">
    <path fill="#4A90E2" fill-rule="evenodd" d="M8.625 9.116l-7.369 6.9c.172.054.354.084.544.084h20.4c.19 0 .372-.03.544-.084l-7.35-6.9-1.819 1.584c-.897.78-2.234.78-3.131 0L8.625 9.116zm15.272-7.397l-7.584 6.6 7.396 6.956c.182-.281.291-.614.291-.975v-12c0-.205-.04-.398-.103-.581zm-23.794 0A1.792 1.792 0 0 0 0 2.3v12c0 .361.109.694.29.975l7.426-6.947-7.613-6.61zM1.8.5c-.352 0-.68.099-.956.272L11.23 9.8c.472.41 1.086.41 1.556 0L23.157.772A1.794 1.794 0 0 0 22.2.5H1.8z"/>
</svg>
