<svg xmlns="http://www.w3.org/2000/svg" width="30" height="18" viewBox="0 0 30 18">
    <path fill="#4A90E2" fill-rule="evenodd" d="M13.554.913h.09c.119 0 .178-.061.178-.182 0-.122-.06-.183-.178-.183h-.09c-.12 0-.18.06-.18.183 0 .121.06.182.18.182zm.733-.365c-.119 0-.179.06-.179.183 0 .121.06.182.18.182h2.145c.12 0 .18-.061.18-.182 0-.122-.06-.183-.18-.183h-2.146zM25.985 1.57H4.002v13.983h21.983V1.57zm1.342-.657v15.406h2.665c.083 1.145-.465 1.704-1.646 1.68H1.64c-1.192.024-1.735-.535-1.628-1.68h2.648V.913c0-.231.077-.444.232-.64C3.06.093 3.251 0 3.466 0h22.948a.85.85 0 0 1 .626.274.858.858 0 0 1 .287.639z"/>
</svg>
