<svg xmlns="http://www.w3.org/2000/svg" xmlns:xlink="http://www.w3.org/1999/xlink" width="52" height="51" viewBox="0 0 52 51">
    <defs>
        <path id="a" d="M0 .047h38.26v11.13H0z"/>
        <path id="c" d="M.078.047h32.075v13.727H.078z"/>
    </defs>
    <g fill="none" fill-rule="evenodd">
        <g transform="translate(0 37.212)">
            <mask id="b" fill="#fff">
                <use xlink:href="#a"/>
            </mask>
            <path fill="#238EC2" d="M35.221 3.8c-.219 1.438-1.317 1.438-2.38 1.438h-.604l.424-2.685a.334.334 0 0 1 .33-.282h.277c.723 0 1.406 0 1.759.412.21.246.274.612.194 1.117zM34.76.047h-4.007c-.274 0-.507.2-.55.47l-1.62 10.274a.334.334 0 0 0 .33.386h2.056a.39.39 0 0 0 .385-.329l.46-2.912a.557.557 0 0 1 .55-.47h1.267c2.64 0 4.162-1.278 4.56-3.81.18-1.106.008-1.976-.51-2.585C37.11.4 36.1.047 34.76.047z" mask="url(#b)"/>
            <path fill="#253667" d="M6.644 3.8c-.22 1.438-1.318 1.438-2.38 1.438h-.605l.424-2.685a.334.334 0 0 1 .33-.282h.277c.723 0 1.407 0 1.759.412.21.246.274.612.195 1.117zM6.18.047H2.174c-.274 0-.507.2-.55.47L.004 10.791a.334.334 0 0 0 .33.386h1.913c.274 0 .507-.199.55-.47l.437-2.771a.557.557 0 0 1 .55-.47h1.268c2.64 0 4.162-1.278 4.56-3.81.18-1.106.008-1.976-.51-2.585C8.531.4 7.521.047 6.181.047z" mask="url(#b)"/>
        </g>
        <path fill="#253667" d="M15.483 44.7c-.185 1.097-1.055 1.833-2.165 1.833-.557 0-1.002-.18-1.289-.518-.284-.336-.39-.815-.3-1.348.172-1.086 1.057-1.846 2.15-1.846.545 0 .987.18 1.279.523.294.344.41.826.325 1.356zm2.674-3.734h-1.919a.334.334 0 0 0-.33.282l-.084.536-.134-.194c-.415-.603-1.342-.805-2.266-.805-2.12 0-3.93 1.607-4.283 3.86-.183 1.124.077 2.198.714 2.947.586.689 1.421.976 2.417.976 1.708 0 2.656-1.098 2.656-1.098l-.086.533a.334.334 0 0 0 .33.387H16.9c.274 0 .507-.2.55-.47l1.037-6.568a.334.334 0 0 0-.33-.386z"/>
        <path fill="#238EC2" d="M44.061 44.7c-.185 1.097-1.056 1.833-2.165 1.833-.557 0-1.002-.18-1.289-.518-.284-.336-.39-.815-.3-1.348.172-1.086 1.057-1.846 2.15-1.846.545 0 .987.18 1.279.523.294.344.41.826.325 1.356zm2.674-3.734h-1.919a.334.334 0 0 0-.33.282l-.084.536-.134-.194c-.416-.603-1.342-.805-2.266-.805-2.12 0-3.93 1.607-4.283 3.86-.184 1.124.077 2.198.714 2.947.586.689 1.421.976 2.417.976 1.708 0 2.656-1.098 2.656-1.098l-.086.533a.334.334 0 0 0 .33.387h1.728c.274 0 .507-.2.55-.47l1.037-6.568a.334.334 0 0 0-.33-.386z"/>
        <g transform="translate(19.358 37.212)">
            <mask id="d" fill="#fff">
                <use xlink:href="#c"/>
            </mask>
            <path fill="#253667" d="M9.018 3.754H7.09a.557.557 0 0 0-.46.244L3.968 7.916 2.84 4.15a.557.557 0 0 0-.533-.397H.412a.334.334 0 0 0-.316.442l2.124 6.232-1.998 2.819a.334.334 0 0 0 .273.527h1.927c.182 0 .353-.09.457-.24l6.414-9.256a.334.334 0 0 0-.275-.524" mask="url(#d)"/>
            <path fill="#238EC2" d="M29.639.33l-1.645 10.462a.334.334 0 0 0 .33.385h1.654c.274 0 .507-.199.55-.47L32.149.433a.334.334 0 0 0-.33-.386h-1.85a.334.334 0 0 0-.33.282" mask="url(#d)"/>
        </g>
        <path fill="#238EC2" d="M38.249 8.446c.405-2.586-.003-4.346-1.402-5.94C35.307.753 32.525 0 28.965 0H18.633c-.728 0-1.347.53-1.46 1.248L12.87 28.531a.887.887 0 0 0 .876 1.025h6.379l-.44 2.792c-.075.471.29.897.766.897h5.377c.636 0 1.178-.463 1.277-1.092l.053-.273 1.013-6.423.065-.355a1.293 1.293 0 0 1 1.277-1.091h.805c5.208 0 9.287-2.117 10.479-8.237.498-2.557.24-4.692-1.077-6.192a5.12 5.12 0 0 0-1.471-1.136"/>
        <path fill="#20274F" d="M38.249 8.446c.405-2.586-.003-4.346-1.402-5.94C35.307.753 32.525 0 28.965 0H18.633c-.728 0-1.347.53-1.46 1.248L12.87 28.531a.887.887 0 0 0 .876 1.025h6.379l1.602-10.16-.05.318a1.473 1.473 0 0 1 1.455-1.248h3.032c5.954 0 10.616-2.419 11.979-9.415.04-.207.075-.407.106-.605"/>
        <path fill="#253667" d="M23.448 8.48a1.293 1.293 0 0 1 1.278-1.091h8.1c.959 0 1.853.063 2.671.194.234.038.462.081.682.13a10.036 10.036 0 0 1 .95.26c.401.134.775.291 1.12.473.405-2.586-.003-4.346-1.402-5.94C35.307.753 32.525 0 28.965 0H18.633c-.728 0-1.347.53-1.46 1.248L12.87 28.531a.887.887 0 0 0 .876 1.025h6.379l3.323-21.075"/>
    </g>
</svg>
