<svg xmlns="http://www.w3.org/2000/svg" width="20" height="36" viewBox="0 0 20 36">
    <path fill="#E0E6D7" fill-rule="evenodd" d="M11.044 33.468l-.027-2.335c-.027-3.705.014.162.049-2.194 1.21-.492 2.074-1.74 2.074-3.215v-.034c1.08-.456 2.249-1.183 3.482-2.327 5.585-5.176 1.498-14.307 1.498-17.982 0-3.68 1.908-4.362 1.908-4.362s-2.464-.583-5.455 1.307c1.355 1.7 2.207 3.992 2.265 6.995C15.224-.193 6.57-1.269 0 1.02c0 0 1.908.681 1.908 4.362 0 3.675-4.088 12.807 1.498 17.982 1.182 1.097 2.304 1.806 3.346 2.265v.097c0 1.498.89 2.757 2.128 3.233-.062 3.778-.123-4.47.078 2.412l.079 2.352c.065 1.722.147.502.248 2.336"/>
</svg>
