<?xml version="1.0" encoding="UTF-8"?>
<svg width="382px" height="56px" viewBox="0 0 382 56" version="1.1" xmlns="http://www.w3.org/2000/svg" xmlns:xlink="http://www.w3.org/1999/xlink">
    <!-- Generator: Sketch 63.1 (92452) - https://sketch.com -->
    <title>Group 24</title>
    <desc>Created with Sketch.</desc>
    <defs>
        <polygon id="path-1" points="0 55.665803 381.892256 55.665803 381.892256 0.515519568 0 0.515519568"></polygon>
    </defs>
    <g id="Symbols" stroke="none" stroke-width="1" fill="none" fill-rule="evenodd">
        <g id="Menu-v2---signed-in" transform="translate(-890.000000, -27.000000)">
            <g id="Group-5" transform="translate(890.000000, 27.000000)">
                <g id="Group-24">
                    <path d="M0,34.4693395 L8.50194872,29.1878416 C11.0285101,33.2609617 15.2238084,35.6204947 19.6469663,35.6204947 C23.1494062,35.6204947 25.7986613,34.5873935 25.7986613,31.939685 C25.7986613,29.2455798 22.4039649,28.2078389 18.2117598,27.1752532 C11.2594629,25.3977417 2.01155735,23.615075 2.01155735,13.9537228 C2.01155735,5.28319919 8.56071795,0.515158704 18.2117598,0.515158704 C27.2307746,0.515158704 32.6323887,4.71148799 36.0214143,8.848017 L28.3226451,15.1615852 C25.9692982,12.2942653 21.8317382,9.82028691 18.1550526,9.82028691 C14.8804723,9.82028691 13.2132821,10.9162815 13.2132821,12.9288699 C13.2132821,15.7410291 16.5461161,16.7741304 20.7398677,17.8092937 C27.6921646,19.4739063 36.9988394,21.599909 36.9988394,31.1354745 C36.9988394,37.9161034 32.2297679,44.6395096 19.1304157,44.6395096 C9.42163563,44.6395096 3.62100945,40.2720278 0,34.4693395" id="Fill-1" fill="#AA7F42"></path>
                    <path d="M38.3168683,35.5600243 L38.3168683,13.0421296 L49.6938696,13.0421296 L49.6938696,32.1127449 C49.6938696,34.2330769 50.3805417,35.4471255 52.2786848,35.4471255 C54.2314729,35.4471255 55.8981476,34.4691849 57.3900613,33.2613225 L57.3900613,13.0421296 L68.7655161,13.0421296 L68.7655161,43.8356599 L57.3900613,43.8356599 L57.3900613,39.1155628 C56.0656915,41.2529069 52.8493649,44.4615007 47.1636996,44.4615007 C42.3379209,44.4615007 38.3168683,42.1705317 38.3168683,35.5600243" id="Fill-4" fill="#AA7F42"></path>
                    <path d="M71.0598874,13.0420265 L82.4327646,13.0420265 L82.4327646,17.8095514 C83.7566189,15.6835487 86.9755231,12.4620669 92.6606729,12.4620669 C97.4874826,12.4620669 101.508535,14.7664394 101.508535,21.3686985 L101.508535,43.8355568 L90.1330804,43.8355568 L90.1330804,25.1067309 C90.1330804,22.9807282 89.4402221,21.7728659 87.5467188,21.7728659 C85.5944462,21.7728659 83.9282869,22.750291 82.4327646,23.9586688 L82.4327646,43.8355568 L71.0598874,43.8355568 L71.0598874,13.0420265 Z" id="Fill-6" fill="#AA7F42"></path>
                    <path d="M103.687636,13.0420265 L115.065153,13.0420265 L115.065153,17.8095514 L115.119798,17.8095514 C116.445199,15.6835487 119.082597,12.4620669 124.717226,12.4620669 L124.831156,12.4620669 L124.831156,22.5198537 C124.368735,22.4595379 122.760829,22.2863233 121.958165,22.2863233 C118.739777,22.2863233 116.557582,23.898353 115.065153,25.1067309 L115.065153,43.8355568 L103.687636,43.8355568 L103.687636,13.0420265 Z" id="Fill-8" fill="#AA7F42"></path>
                    <path d="M143.044101,34.0683169 L143.044101,29.7018661 C137.526496,29.8745652 135.116442,31.3056475 135.116442,33.664665 C135.116442,35.1643115 136.208312,35.8509835 137.645065,35.8509835 C140.456709,35.8509835 142.069254,34.9854262 143.044101,34.0683169 M124.029162,35.5602305 C124.029162,28.6661873 130.406139,24.4755287 143.044101,23.8981468 L143.044101,23.494495 C143.044101,22.0036124 142.297114,20.912773 139.654045,20.912773 C136.09696,20.912773 132.760002,22.4072642 130.177249,24.2414829 L125.522107,17.8093452 C128.336844,15.2796907 133.162622,12.4618607 141.438774,12.4618607 C150.514496,12.4618607 154.133958,16.7138661 154.133958,25.3977933 L154.133958,36.364441 C154.133958,40.0452507 154.360787,42.2831212 154.996938,43.8353506 L143.736444,43.8353506 C143.328668,42.5712966 143.044101,41.0778364 143.044101,39.3554856 C140.514962,42.5135584 137.354828,44.2967406 132.820317,44.2967406 C128.394582,44.2967406 124.029162,41.594387 124.029162,35.5602305" id="Fill-10" fill="#AA7F42"></path>
                    <path d="M153.55637,54.345248 L155.911264,45.6175018 C156.773212,45.8396907 159.301836,46.5346111 162.402686,46.5346111 C163.83583,46.5346111 164.816864,46.1309592 165.330322,44.7519444 L165.620044,44.0049565 L153.900737,13.0418202 L165.562821,13.0418202 L171.251579,30.621553 L171.362932,30.621553 L177.053752,13.0418202 L188.026586,13.0418202 L175.159733,46.9382629 C173.145083,52.2259471 170.099393,55.6139417 163.782732,55.6139417 C158.322864,55.6139417 155.33749,54.8674694 153.55637,54.345248" id="Fill-12" fill="#AA7F42"></path>
                    <path d="M185.3215,40.0451476 L189.515252,33.6650775 C192.387727,35.9606861 197.039776,37.394346 200.545309,37.394346 C202.495004,37.394346 204.22251,36.8257279 204.22251,35.3863973 C204.22251,33.7831314 202.786272,33.2609101 199.451892,32.7995201 C194.221946,32.0525323 186.814445,30.8524027 186.814445,22.8628804 C186.814445,15.9698683 192.448558,12.4622731 199.396216,12.4622731 C206.11756,12.4622731 210.025198,14.0196578 213.760653,16.713763 L209.564324,22.9809344 C206.230974,21.0250532 202.96258,19.8775066 200.484477,19.8775066 C198.588912,19.8775066 197.331044,20.4512799 197.331044,21.8333879 C197.331044,23.2665323 198.935341,23.7799897 202.038769,24.1836416 C207.262013,24.8759843 214.732923,26.0240464 214.732923,33.4944405 C214.732923,41.6463514 207.723919,44.4610883 200.599438,44.4610883 C193.420828,44.4610883 188.710526,42.5134553 185.3215,40.0451476" id="Fill-14" fill="#AA7F42"></path>
                    <mask id="mask-2" fill="white">
                        <use xlink:href="#path-1"></use>
                    </mask>
                    <g id="Clip-17"></g>
                    <path d="M216.397072,43.8402996 L227.773557,43.8402996 L227.773557,13.0421296 L216.397072,13.0421296 L216.397072,43.8402996 Z M216.397072,10.0505695 L227.773557,10.0505695 L227.773557,1.32230769 L216.397072,1.32230769 L216.397072,10.0505695 Z" id="Fill-16" fill="#AA7F42" mask="url(#mask-2)"></path>
                    <path d="M248.629469,34.0683169 L248.629469,29.7018661 C243.109285,29.8745652 240.697169,31.3056475 240.697169,33.664665 C240.697169,35.1643115 241.791617,35.8509835 243.224761,35.8509835 C246.036921,35.8509835 247.649466,34.9854262 248.629469,34.0683169 M229.612983,35.5602305 C229.612983,28.6661873 235.984289,24.4755287 248.629469,23.8981468 L248.629469,23.494495 C248.629469,22.0036124 247.882481,20.912773 245.235288,20.912773 C241.669954,20.912773 238.340729,22.4072642 235.753336,24.2414829 L231.104896,17.8093452 C233.917056,15.2796907 238.747474,12.4618607 247.01383,12.4618607 C256.09213,12.4618607 259.714686,16.7138661 259.714686,25.3977933 L259.714686,36.364441 C259.714686,40.0452507 259.94203,42.2831212 260.576635,43.8353506 L249.316141,43.8353506 C248.909396,42.5712966 248.629469,41.0778364 248.629469,39.3554856 C246.098267,42.5135584 242.938648,44.2967406 238.40156,44.2967406 C233.974794,44.2967406 229.612983,41.594387 229.612983,35.5602305" id="Fill-18" fill="#AA7F42" mask="url(#mask-2)"></path>
                    <path d="M278.379536,37.3942945 C288.0878,37.3942945 292.632621,33.1458977 292.632621,22.4071096 C292.632621,12.1766238 288.030062,7.98287206 278.264059,7.98287206 L272.804192,7.98287206 L272.804192,37.3942945 L278.379536,37.3942945 Z M265.624551,1.32235924 L277.747509,1.32235924 C291.076267,1.32235924 299.806591,7.52096653 299.806591,22.4071096 C299.806591,37.5726642 290.90563,43.8357115 277.747509,43.8357115 L265.624551,43.8357115 L265.624551,1.32235924 Z" id="Fill-19" fill="#1D1D1B" mask="url(#mask-2)"></path>
                    <path d="M319.971036,35.3347422 L319.971036,28.6056653 C311.523217,29.756305 307.044383,31.8297247 307.044383,35.1646208 C307.044383,37.5726127 308.71312,38.833058 311.289171,38.833058 C314.912242,38.833058 317.730072,37.4545587 319.971036,35.3347422 M300.093117,36.4771336 C300.093117,29.8748745 305.725684,25.45017 319.971036,23.8376248 L319.971036,22.9205155 C319.971036,19.877919 318.364677,18.5561269 314.972043,18.5561269 C310.721584,18.5561269 307.276882,20.6243914 304.684334,22.6900783 L301.239632,18.270529 C304.514728,15.28 309.626105,12.7503455 315.947921,12.7503455 C324.107565,12.7503455 326.919724,16.6615924 326.919724,23.7798866 L326.919724,36.3647503 C326.919724,40.0450445 327.153255,42.282915 327.776518,43.8356599 L320.661317,43.8356599 C320.259727,42.5716059 319.971036,41.6467638 319.971036,39.9233819 C316.865546,43.0871255 313.2533,44.2965344 308.71312,44.2965344 C303.767225,44.2965344 300.093117,41.5354116 300.093117,36.4771336" id="Fill-20" fill="#1D1D1B" mask="url(#mask-2)"></path>
                    <path d="M330.824372,43.8356599 L337.94576,43.8356599 L337.94576,13.3277274 L330.824372,13.3277274 L330.824372,43.8356599 Z M330.770243,8.04622942 L338.001951,8.04622942 L338.001951,1.89659649 L330.770243,1.89659649 L330.770243,8.04622942 Z" id="Fill-21" fill="#1D1D1B" mask="url(#mask-2)"></path>
                    <polygon id="Fill-22" fill="#1D1D1B" mask="url(#mask-2)" points="342.483363 43.8397841 349.60475 43.8397841 349.60475 1.32230769 342.483363 1.32230769"></polygon>
                    <path d="M350.98325,54.750034 L352.593733,49.0643687 C353.46393,49.2860421 355.292478,49.6912405 357.764394,49.6912405 C360.294564,49.6912405 361.61481,48.7205171 362.587595,46.2429301 L363.452121,44.0050596 L351.734362,13.3275212 L359.088764,13.3275212 L366.956623,35.5598181 L367.070038,35.5598181 L374.880159,13.3275212 L381.892256,13.3275212 L368.909412,47.1600394 C366.898885,52.510617 364.257363,55.6655968 358.223722,55.6655968 C354.606321,55.6655968 352.480318,55.1521393 350.98325,54.750034" id="Fill-23" fill="#1D1D1B" mask="url(#mask-2)"></path>
                </g>
            </g>
        </g>
    </g>
</svg>